<svg width="207" height="207" viewBox="0 0 207 207" fill="none" xmlns="http://www.w3.org/2000/svg">
<circle cx="103.5" cy="103.5" r="103.5" fill="#BCFF36"/>
<path d="M146.816 82.8254L148.615 82.6452V65.3878C148.615 63.5297 147.878 61.7487 146.565 60.4355C145.251 59.1223 143.47 58.3846 141.612 58.3846H129.906L127.914 58.5003V60.5045C127.933 63.0179 126.609 65.3501 124.441 66.623C122.273 67.8958 119.591 67.9155 117.405 66.6741C115.22 65.4335 113.862 63.121 113.843 60.6075L113.92 58.3971H54.8101H54.8109C52.9528 58.3971 51.1719 59.1348 49.8586 60.4479C48.5455 61.762 47.8078 63.543 47.8078 65.4002V113.677L49.9662 113.511H50.1974C51.8584 113.511 53.2046 114.857 53.2046 116.518C53.2046 118.178 51.8583 119.524 50.1974 119.524H49.9276L47.7692 119.358V152.151C47.7692 154.009 48.5069 155.79 49.8201 157.103C51.1332 158.416 52.9142 159.154 54.7724 159.154H88.4648L88.3366 156.789V156.468H88.3357C88.4765 152.076 90.9012 148.077 94.7293 145.92C98.5587 143.763 103.236 143.763 107.064 145.92C110.893 148.077 113.317 152.076 113.458 156.468V156.777L113.342 159.154H141.612C143.47 159.154 145.251 158.416 146.564 157.103C147.878 155.79 148.615 154.009 148.615 152.15V96.9984L146.816 96.8182V96.8191C144.476 96.5941 142.402 95.2138 141.292 93.1406C140.182 91.0673 140.182 88.5763 141.292 86.503C142.402 84.4298 144.476 83.0494 146.816 82.8254L146.816 82.8254ZM144.607 100.468V152.151C144.6 153.802 143.263 155.138 141.612 155.146H117.404C116.937 149.576 113.694 144.617 108.777 141.958C103.86 139.3 97.9348 139.3 93.0192 141.958C88.1026 144.617 84.8589 149.576 84.3917 155.146H54.8366C53.1864 155.138 51.8498 153.802 51.8427 152.151V123.302C53.9151 122.824 55.6567 121.429 56.5782 119.512C57.4997 117.594 57.4997 115.363 56.5782 113.446C55.6568 111.529 53.9153 110.135 51.8427 109.655V65.3867C51.8499 63.7356 53.1864 62.3991 54.8366 62.392H110.014C110.618 65.8241 112.81 68.7686 115.923 70.3326C119.037 71.8967 122.707 71.8967 125.821 70.3326C128.935 68.7685 131.126 65.8241 131.731 62.392H141.612C143.263 62.3991 144.6 63.7356 144.607 65.3867V79.2129C141.48 80.0761 138.893 82.2712 137.529 85.2139C136.166 88.1566 136.166 91.5492 137.529 94.4921C138.892 97.4348 141.48 99.6292 144.607 100.493L144.607 100.468Z" fill="black"/>
<path d="M125.55 84.5855C125.55 82.8098 124.844 81.1068 123.589 79.8509C122.334 78.596 120.63 77.8906 118.855 77.8906C117.079 77.8906 115.377 78.596 114.121 79.8509C112.865 81.1067 112.16 82.8099 112.16 84.5855C112.16 86.3611 112.865 88.0633 114.121 89.3192C115.377 90.5749 117.079 91.2804 118.855 91.2804C120.63 91.2768 122.331 90.5705 123.586 89.3156C124.84 88.0607 125.547 86.3594 125.55 84.5856L125.55 84.5855ZM116.156 84.5855H116.157C116.157 83.4938 116.814 82.5096 117.822 82.0919C118.831 81.6742 119.991 81.9055 120.763 82.6772C121.535 83.449 121.766 84.6098 121.348 85.6181C120.931 86.6264 119.946 87.2835 118.855 87.2835C117.39 87.2485 116.22 86.051 116.22 84.5854L116.156 84.5855Z" fill="black"/>
<path d="M93.5942 101.88C91.4501 101.88 89.3948 102.732 87.8782 104.248C86.3625 105.763 85.511 107.82 85.511 109.963C85.511 112.107 86.3626 114.162 87.8782 115.678C89.3948 117.194 91.4501 118.046 93.5942 118.046C95.7374 118.046 97.7936 117.194 99.3093 115.678C100.825 114.162 101.676 112.107 101.676 109.963C101.673 107.82 100.82 105.766 99.3056 104.251C97.7899 102.736 95.7363 101.884 93.594 101.88L93.5942 101.88ZM93.5942 114.049C92.5105 114.049 91.4708 113.619 90.7043 112.853C89.9379 112.086 89.5077 111.047 89.5077 109.963C89.5077 108.879 89.9379 107.84 90.7043 107.074C91.4707 106.307 92.5105 105.876 93.5942 105.876C94.6779 105.876 95.7168 106.307 96.4832 107.074C97.2495 107.84 97.6807 108.879 97.6807 109.963C97.6807 111.046 97.2496 112.086 96.4832 112.853C95.7168 113.619 94.6779 114.049 93.5942 114.049Z" fill="black"/>
<path d="M124.535 109.875C121.961 109.868 119.489 110.885 117.665 112.701C115.84 114.518 114.812 116.985 114.807 119.559C114.803 122.134 115.822 124.604 117.64 126.428C119.458 128.251 121.926 129.276 124.501 129.278C127.076 129.281 129.545 128.26 131.366 126.439C133.188 124.62 134.211 122.151 134.211 119.577C134.208 117.009 133.188 114.548 131.375 112.729C129.562 110.911 127.102 109.885 124.535 109.875ZM124.535 125.295C123.022 125.295 121.571 124.693 120.501 123.624C119.43 122.554 118.83 121.102 118.83 119.589C118.83 118.076 119.43 116.625 120.501 115.555C121.571 114.485 123.022 113.884 124.535 113.884C126.048 113.884 127.499 114.485 128.57 115.555C129.639 116.625 130.24 118.076 130.24 119.589C130.237 121.101 129.634 122.548 128.565 123.616C127.495 124.682 126.046 125.282 124.535 125.282L124.535 125.295Z" fill="black"/>
<path d="M68.5481 127.208C65.9747 127.208 63.507 128.231 61.6876 130.05C59.8689 131.869 58.8461 134.337 58.8461 136.91C58.8461 139.483 59.8688 141.952 61.6876 143.77C63.5072 145.59 65.9749 146.613 68.5481 146.613C71.1207 146.613 73.5893 145.59 75.408 143.77C77.2276 141.952 78.2504 139.483 78.2504 136.91C78.2468 134.338 77.2232 131.873 75.4046 130.054C73.586 128.235 71.12 127.212 68.5484 127.208H68.5481ZM68.5481 142.628C67.0351 142.628 65.5839 142.028 64.5137 140.957C63.4434 139.887 62.8429 138.436 62.8429 136.923C62.8429 135.41 63.4434 133.959 64.5137 132.889C65.5839 131.819 67.035 131.218 68.5481 131.218C70.0612 131.218 71.5124 131.819 72.5826 132.889C73.6519 133.959 74.2534 135.41 74.2534 136.923C74.2462 138.432 73.6421 139.876 72.5736 140.941C71.5043 142.005 70.0566 142.603 68.5481 142.603L68.5481 142.628Z" fill="black"/>
</svg>
