<svg width="248" height="232" viewBox="0 0 248 232" fill="none" xmlns="http://www.w3.org/2000/svg">
<path d="M1.52496 230.871L30.3889 208.844C30.8988 208.455 31.1049 207.784 30.9015 207.176L1.88247 120.372C1.3612 118.812 3.36636 117.671 4.4406 118.916L77.5347 203.602C78.4925 204.711 80.3097 203.93 80.1626 202.471L76.4284 165.434C76.3761 164.915 76.5966 164.407 77.0108 164.091L103.292 144.035C103.77 143.67 103.984 143.056 103.836 142.474L82.0717 56.5998C81.6947 55.1122 83.5303 54.0854 84.6007 55.1851L164.544 137.324C165.561 138.37 167.322 137.494 167.101 136.052L161.666 100.47C161.583 99.9283 161.803 99.3842 162.239 99.0515L184.523 82.0459C184.998 81.6837 185.213 81.0743 185.07 80.4945L166.092 3.50117C165.702 1.92166 167.754 0.938947 168.74 2.23219L231.604 84.6094C232.546 85.8442 234.514 85.0084 234.279 83.4729L229.024 49.0687C228.941 48.5265 229.161 47.9824 229.597 47.6497L246.72 34.583" stroke="#BCFF36" stroke-width="2.8"/>
</svg>
