<svg width="153" height="153" viewBox="0 0 153 153" fill="none" xmlns="http://www.w3.org/2000/svg">
<circle cx="76.5" cy="76.5" r="76.5" fill="#BCFF36"/>
<path fill-rule="evenodd" clip-rule="evenodd" d="M81.7484 36.4179C80.1632 34.9376 77.9684 34.9376 76.3832 36.4179C76.3391 36.4592 67.3858 44.8248 60.2235 56.3884C55.0947 64.6702 51 74.5698 51 84.2706C51 103.287 63.5767 118.725 79.0663 118.725C94.556 118.725 107.133 103.285 107.133 84.2706C107.133 74.5704 103.038 64.6716 97.9092 56.3884C90.7467 44.8259 81.7964 36.4599 81.7495 36.4179H81.7484ZM79.9595 39.3043H79.961C79.961 39.3043 88.6261 47.3944 95.5572 58.5847C100.291 66.2278 104.178 75.3159 104.178 84.2706C104.178 101.286 92.9265 115.098 79.0666 115.098C65.2066 115.098 53.9554 101.286 53.9554 84.2706C53.9554 75.3161 57.8418 66.2291 62.576 58.5847C69.5065 47.3939 78.1722 39.3043 78.1722 39.3043H78.1737C78.7009 38.8113 79.4338 38.8113 79.9611 39.3043H79.9595Z" fill="black"/>
<path fill-rule="evenodd" clip-rule="evenodd" d="M80.3459 105.463C70.025 105.463 61.646 96.3634 61.646 85.1556C61.646 84.1362 60.8844 83.3091 59.9457 83.3091C59.0071 83.3091 58.2455 84.1362 58.2455 85.1556C58.2455 98.4018 68.1486 109.155 80.3465 109.155C81.2851 109.155 82.0467 108.328 82.0467 107.309C82.0467 106.29 81.2851 105.463 80.3465 105.463L80.3459 105.463Z" fill="black"/>
</svg>
