<svg width="278" height="278" viewBox="0 0 278 278" fill="none" xmlns="http://www.w3.org/2000/svg">
<circle cx="139" cy="139" r="139" fill="#BCFF36"/>
<path d="M156.821 111.199C159.845 111.199 162.746 109.998 164.886 107.859C167.024 105.72 168.226 102.818 168.226 99.7942C168.226 96.7699 167.024 93.8687 164.886 91.7291C162.746 89.5907 159.845 88.389 156.821 88.389C153.796 88.389 150.895 89.5907 148.756 91.7291C146.617 93.8688 145.416 96.7699 145.416 99.7942C145.419 102.819 146.622 105.717 148.76 107.855C150.898 109.993 153.796 111.195 156.821 111.199ZM156.821 94.0916C158.333 94.0916 159.784 94.6924 160.853 95.7616C161.922 96.8309 162.523 98.282 162.523 99.7942C162.523 101.306 161.922 102.757 160.853 103.827C159.784 104.896 158.333 105.497 156.821 105.497C155.308 105.497 153.857 104.896 152.788 103.827C151.719 102.757 151.118 101.306 151.118 99.7942C151.119 98.282 151.721 96.8334 152.791 95.7642C153.86 94.6951 155.308 94.0929 156.821 94.0917L156.821 94.0916Z" fill="black"/>
<path d="M220.321 167.117C216.305 163.72 208.955 159.671 196.738 159.671C194.824 159.662 192.912 159.85 191.036 160.232V91.2408C191.028 84.4371 188.322 77.9147 183.512 73.1034C178.7 68.293 172.178 65.5871 165.374 65.5792H142.564C134.425 65.5754 126.513 68.2561 120.053 73.2063C117.858 70.8909 115.469 68.7678 112.911 66.8622C107.444 62.7749 101.406 59.5101 94.9934 57.1717C94.4091 56.9769 93.7752 56.9769 93.191 57.1717C86.778 59.51 80.7408 62.7749 75.2739 66.8622C63.3353 75.8158 57.0256 87.2031 57.0256 99.7937C57.0256 126.569 64.5511 146.734 80.0321 161.44C81.725 163.055 82.6835 165.29 82.6873 167.63V173.343L74.3639 192.765C73.9209 193.797 74.1258 194.992 74.8858 195.818C75.6469 196.645 76.8218 196.947 77.886 196.592L94.0923 191.19L110.299 196.592C111.363 196.947 112.538 196.645 113.299 195.818C114.059 194.992 114.264 193.797 113.821 192.765L105.497 173.343V167.63C105.501 165.291 106.46 163.054 108.153 161.44C110.73 158.992 113.117 156.351 115.291 153.539L120.1 158.348C121.699 159.956 122.599 162.129 122.605 164.395V165.375C122.613 172.178 125.319 178.701 130.129 183.512C134.941 188.323 141.463 191.029 148.267 191.036H148.4C149.327 200.876 154.996 205.787 159.822 208.199C163.335 209.913 167.17 210.867 171.077 210.995C174.983 210.867 178.819 209.913 182.332 208.199C184.51 207.124 186.488 205.682 188.179 203.938C190.936 204.866 193.83 205.323 196.738 205.293C208.956 205.293 216.305 201.244 220.321 197.846C225.267 193.662 228.103 188.062 228.103 182.483C228.103 176.903 225.267 171.303 220.321 167.119L220.321 167.117ZM142.564 71.2816H165.374C170.666 71.2879 175.74 73.3921 179.481 77.1344C183.223 80.8753 185.327 85.9492 185.333 91.2406V162.249C185.087 162.379 184.842 162.514 184.602 162.654C183.117 161.229 181.445 160.015 179.631 159.044V91.2387C179.627 87.4593 178.124 83.8354 175.451 81.1624C172.778 78.4894 169.154 76.9862 165.374 76.9823H142.564C136.838 76.9912 131.277 78.9082 126.763 82.4316C125.856 80.7476 124.835 79.1297 123.704 77.5884C129.138 73.491 135.758 71.2761 142.564 71.28L142.564 71.2816ZM135.538 148.612L125.109 138.183L125.11 138.184C124.902 137.974 124.706 137.754 124.521 137.523C128.966 126.749 131.159 114.233 131.159 99.792C131.164 95.7341 130.487 91.7028 129.154 87.8701C132.828 84.5414 137.607 82.6931 142.564 82.6843H165.374C167.643 82.6869 169.817 83.5893 171.42 85.1932C173.023 86.7958 173.926 88.9699 173.928 91.2382V157.069C172.986 156.906 172.033 156.822 171.077 156.819C165.498 156.819 159.897 159.655 155.713 164.6C153.418 167.364 151.65 170.525 150.497 173.927H148.267C145.999 173.924 143.824 173.022 142.222 171.418C140.618 169.815 139.716 167.641 139.713 165.373V158.69C139.723 154.909 138.22 151.279 135.538 148.611L135.538 148.612ZM78.5742 71.5162C83.3413 67.9686 88.5612 65.0752 94.096 62.9115C99.5822 65.0525 104.76 67.9151 109.49 71.4246C119.149 78.6685 124.465 87.2429 125.329 96.9435H62.858C63.7184 87.2846 68.9933 78.7425 78.5742 71.5162ZM99.7959 102.646H111.201V108.349C111.201 110.387 110.114 112.269 108.35 113.287C106.586 114.306 104.411 114.306 102.647 113.287C100.883 112.269 99.7959 110.386 99.7959 108.349V102.646ZM62.7618 102.646H76.9863V149.531C73.2363 144.572 70.2348 139.088 68.0786 133.256C64.7473 124.371 63.0036 114.33 62.7618 102.645V102.646ZM94.9954 185.48C94.4111 185.285 93.7772 185.285 93.193 185.48L82.1085 189.175L87.4203 176.78H100.767L106.078 189.175L94.9954 185.48ZM104.226 157.306C101.403 159.998 99.8031 163.727 99.7966 167.63V171.077H88.3915V167.63C88.3851 163.729 86.7851 159.998 83.9604 157.306C83.5289 156.896 83.105 156.482 82.6888 156.065V102.646H94.0939V108.349C94.0939 112.423 96.268 116.189 99.7965 118.226C103.325 120.263 107.673 120.263 111.202 118.226C114.73 116.188 116.904 112.423 116.904 108.349V102.646H125.426C125.184 114.331 123.44 124.372 120.111 133.257H120.109C116.749 142.395 111.312 150.627 104.228 157.306L104.226 157.306ZM128.309 165.375V164.394C128.32 160.613 126.816 156.984 124.134 154.316L118.633 148.814C119.823 146.968 120.928 145.058 121.948 143.085L131.508 152.646C133.106 154.253 134.006 156.426 134.012 158.692V165.375C134.016 169.154 135.519 172.778 138.192 175.451C140.865 178.124 144.489 179.627 148.269 179.631H149.007C148.667 181.516 148.447 183.421 148.348 185.334H148.269C142.977 185.327 137.903 183.223 134.162 179.481C130.42 175.74 128.316 170.666 128.31 165.375L128.309 165.375ZM179.942 203.018C177.177 204.384 174.158 205.158 171.078 205.293C170.379 205.293 153.97 205.098 153.97 188.185C153.97 169.49 164.464 162.523 171.078 162.523C177.692 162.523 188.185 169.49 188.185 188.185C188.185 195.224 185.412 200.215 179.942 203.018V203.018ZM196.739 199.59C195.013 199.601 193.292 199.408 191.612 199.012C193 196.161 193.888 192.607 193.888 188.185C193.888 178.185 191.176 171.446 188.328 167.129C190.686 165.965 193.501 165.375 196.739 165.375C215.434 165.375 222.401 175.868 222.401 182.482C222.401 189.096 215.434 199.59 196.739 199.59L196.739 199.59Z" fill="black"/>
<path d="M91.2411 88.3894C93.5094 88.3894 95.6862 87.4882 97.2898 85.8844C98.8933 84.2805 99.7948 82.1037 99.7948 79.8357C99.7948 77.5677 98.8936 75.3907 97.2898 73.7871C95.6859 72.1835 93.5091 71.282 91.2411 71.282C88.9731 71.282 86.7961 72.1832 85.1925 73.7871C83.5889 75.391 82.6874 77.5677 82.6874 79.8357C82.69 82.104 83.5925 84.2782 85.1963 85.8808C86.7989 87.4846 88.973 88.3871 91.2414 88.3897L91.2411 88.3894ZM91.2411 76.9843C92.3944 76.9843 93.4343 77.6793 93.8747 78.7447C94.3164 79.8101 94.0733 81.0359 93.2574 81.8518C92.4415 82.6678 91.2157 82.9109 90.1502 82.4692C89.0848 82.0287 88.3898 80.9888 88.3898 79.8356C88.3911 78.261 89.6666 76.9856 91.2411 76.9843Z" fill="black"/>
</svg>
