<svg width="232" height="211" viewBox="0 0 232 211" fill="none" xmlns="http://www.w3.org/2000/svg">
<g clip-path="url(#clip0_95_165)">
<path d="M3.625 211H228.375C229.336 211 230.258 210.653 230.938 210.034C231.618 209.416 232 208.578 232 207.703C232 206.829 231.618 205.99 230.938 205.372C230.258 204.754 229.336 204.406 228.375 204.406H3.625C2.66359 204.406 1.74156 204.754 1.06174 205.372C0.381919 205.99 0 206.829 0 207.703C0 208.578 0.381919 209.416 1.06174 210.034C1.74156 210.653 2.66359 211 3.625 211ZM82.9545 146.406C83.3258 145.969 83.5701 145.453 83.665 144.908L84.2251 141.701C81.9458 140.113 79.7954 138.378 77.7907 136.509L76.6506 143.042L47.8119 176.983C46.1513 178.955 45.2764 181.382 45.3308 183.866C45.3851 186.349 46.3654 188.743 48.111 190.653C50.1319 192.842 53.0248 194.213 56.1553 194.464C59.2857 194.716 62.398 193.828 64.8096 191.995L101.986 163.652C102.504 163.256 102.891 162.737 103.102 162.152L105.834 154.569L99.47 151.058L96.5337 159.203L60.1532 186.941C59.2157 187.653 58.0061 187.997 56.7897 187.899C55.5734 187.8 54.4495 187.268 53.6645 186.417C52.9754 185.661 52.5887 184.716 52.5676 183.734C52.5465 182.753 52.8924 181.794 53.5485 181.015L82.9545 146.406ZM174.377 171.438L177.518 177.318C177.645 177.553 177.741 177.794 177.855 178.031H228.375C229.336 178.031 230.258 177.684 230.938 177.066C231.618 176.447 232 175.609 232 174.734C232 173.86 231.618 173.021 230.938 172.403C230.258 171.785 229.336 171.438 228.375 171.438H174.377ZM156.85 195.904C157.719 196.079 158.606 196.167 159.496 196.167C161.847 196.167 164.144 195.535 166.101 194.351L166.841 193.906C169.237 192.463 170.979 190.28 171.743 187.761C172.507 185.241 172.242 182.555 170.997 180.199L148.815 138.676C148.666 138.395 148.473 138.135 148.243 137.903L128.323 117.898V112.267L121.073 108.759V119.169C121.074 119.987 121.408 120.776 122.012 121.383L142.521 141.98L164.477 183.079C164.958 183.996 165.057 185.04 164.757 186.019C164.457 186.998 163.777 187.845 162.844 188.403L162.105 188.848C161.568 189.172 160.965 189.393 160.331 189.498C159.698 189.604 159.048 189.592 158.42 189.463C157.8 189.342 157.214 189.107 156.697 188.774C156.18 188.441 155.742 188.016 155.411 187.525L133.233 154.698C132.932 154.251 132.518 153.877 132.026 153.605L103.262 137.727L102.713 137.394C88.6312 128.835 81.5625 124.539 81.5625 110.633V55.7469C81.5864 52.5914 82.5242 49.4973 84.2814 46.7764C86.0386 44.0555 88.5532 41.8037 91.5718 40.248C94.5905 38.6923 98.0066 37.8875 101.476 37.9147C104.946 37.942 108.346 38.8003 111.335 40.4032C113.003 41.075 114.46 42.116 115.572 43.4314C119.097 46.7297 121.071 51.1472 121.075 55.7469V71.1746L128.325 74.6808V55.7469C128.323 49.3561 125.549 43.2241 120.606 38.6823C125.043 37.4508 128.933 34.964 131.71 31.5835C134.487 28.203 136.006 24.1051 136.046 19.8856C136.086 15.6661 134.645 11.5449 131.932 8.12148C129.22 4.69802 125.377 2.1507 120.964 0.849912C116.55 -0.450875 111.795 -0.437304 107.391 0.888651C102.986 2.21461 99.1611 4.78381 96.4724 8.22269C93.7836 11.6616 92.3711 15.7908 92.4402 20.01C92.5092 24.2292 94.0563 28.3184 96.8564 31.683C90.5779 32.6242 84.869 35.5575 80.7422 39.9626C76.6153 44.3677 74.3374 49.9597 74.3125 55.7469V110.633C74.3125 128.064 84.0094 133.959 98.687 142.877L127.517 158.829L149.232 190.978C150.07 192.225 151.177 193.304 152.486 194.151C153.796 194.997 155.28 195.594 156.85 195.904ZM114.188 6.59378C117.055 6.59378 119.859 7.36721 122.243 8.81627C124.628 10.2653 126.486 12.3249 127.584 14.7346C128.681 17.1443 128.968 19.7959 128.409 22.354C127.849 24.9122 126.468 27.2619 124.441 29.1062C122.413 30.9506 119.829 32.2065 117.016 32.7154C114.204 33.2242 111.288 32.9631 108.639 31.9649C105.989 30.9668 103.724 29.2765 102.131 27.1079C100.538 24.9392 99.6875 22.3895 99.6875 19.7813C99.6923 16.2851 101.222 12.9333 103.94 10.4611C106.658 7.98893 110.343 6.59814 114.188 6.59378Z" fill="#BCFF36"/>
<path d="M92.4375 54.3111C91.4761 54.3111 90.5541 54.6584 89.8742 55.2767C89.1944 55.895 88.8125 56.7336 88.8125 57.6079V83.7077C88.8125 84.3059 88.9914 84.8929 89.3302 85.4058C89.669 85.9186 90.1548 86.3379 90.7356 86.6188L134.141 107.61C135.859 108.438 137.784 108.843 139.727 108.787C141.67 108.73 143.563 108.214 145.219 107.289C146.865 106.371 148.214 105.074 149.129 103.529C150.045 101.983 150.494 100.245 150.431 98.4906C150.368 96.7362 149.796 95.0282 148.772 93.5403C147.748 92.0524 146.309 90.8376 144.601 90.0195L110.59 73.5681V54.3984C110.59 53.5241 110.208 52.6855 109.528 52.0672C108.848 51.4489 107.926 51.1016 106.965 51.1016C106.003 51.1016 105.081 51.4489 104.401 52.0672C103.722 52.6855 103.34 53.5241 103.34 54.3984V75.5512C103.339 76.1493 103.518 76.7362 103.857 77.249C104.195 77.7618 104.68 78.1812 105.261 78.4623L141.197 95.8434C141.778 96.1167 142.268 96.5258 142.618 97.0286C142.967 97.5314 143.162 98.1098 143.184 98.7042C143.206 99.2986 143.053 99.8875 142.742 100.41C142.43 100.933 141.971 101.371 141.411 101.679C140.834 102.002 140.173 102.182 139.496 102.202C138.818 102.221 138.146 102.08 137.547 101.791L96.0625 81.7262V57.6096C96.0625 56.7352 95.6806 55.8966 95.0008 55.2784C94.321 54.6601 93.3989 54.3127 92.4375 54.3127V54.3111ZM127.524 171.438H103.061L94.4113 178.031H131.979L127.524 171.438ZM3.625 178.031H39.1029C39.7742 176.198 40.779 174.481 42.0754 172.951L43.3623 171.438H3.625C2.66359 171.438 1.74156 171.785 1.06174 172.403C0.381919 173.021 0 173.86 0 174.734C0 175.609 0.381919 176.447 1.06174 177.066C1.74156 177.684 2.66359 178.031 3.625 178.031Z" fill="#BCFF36"/>
</g>
<defs>
<clipPath id="clip0_95_165">
<rect width="232" height="211" fill="white"/>
</clipPath>
</defs>
</svg>
