<svg width="172" height="156" viewBox="0 0 172 156" fill="none" xmlns="http://www.w3.org/2000/svg">
<path fill-rule="evenodd" clip-rule="evenodd" d="M14.3513 0.0157868C16.9804 -0.18657 19.2927 1.57998 19.5163 3.96148L20.8837 18.5417C68.7885 10.8574 102.117 10.7895 151.113 18.5729L152.484 3.96148C152.707 1.57998 155.02 -0.18657 157.649 0.0157868L167.17 0.748442C169.799 0.950755 171.749 3.04533 171.526 5.42679L169.956 22.1682C171.464 23.1224 172.289 24.8249 171.907 26.5637C171.599 27.9628 170.579 29.0693 169.255 29.6341L167.582 47.474C167.359 49.8554 165.046 51.6219 162.417 51.4194L152.896 50.6868C150.267 50.4847 148.317 48.3901 148.54 46.0087L150.301 27.231C147.685 26.8117 145.116 26.4152 142.589 26.0418C143.039 27.3028 143.283 28.6487 143.283 30.0456C143.283 30.3728 143.289 30.8709 143.298 31.5568L143.299 31.5953C143.362 36.5781 143.53 49.7187 141.825 62.2504C140.871 69.2624 139.2 77.2203 135.943 83.7748C133.515 88.6628 128.52 95.9019 119.444 98.4024V103.11C123.006 101.971 126.572 100.884 129.525 100.21C131.395 99.782 134.803 99.0697 138.345 99.3536C140.15 99.4981 143.805 100.026 147.22 102.543C151.317 105.561 152.888 109.778 152.888 113.408C152.888 117.402 151.469 126.893 150.338 133.648C149.73 137.275 149.099 140.734 148.596 143.086L148.555 143.275C148.205 144.921 147.683 147.373 146.217 149.607L146.213 149.613L146.205 149.625C145.874 150.133 144.366 152.437 141.253 154.135C139.331 155.183 136.167 156.326 132.208 155.914C128.2 155.496 125.338 153.691 123.647 152.145C121.897 150.544 120.617 148.533 119.971 146.35C119.113 143.479 118.857 140.484 118.723 137.804C118.677 136.889 118.646 136.03 118.616 135.21C118.561 133.717 118.511 132.35 118.389 131.006C114.5 132.228 110.317 133.479 106.152 134.538C99.9388 136.12 92.7602 137.551 86.0002 137.551C79.2402 137.551 72.0617 136.12 65.8483 134.539C61.7518 133.496 57.6377 132.269 53.8041 131.066L53.7085 132.198C53.4095 135.716 53.1042 139.176 52.8705 141.506C52.8552 141.659 52.84 141.825 52.8237 142.002C52.677 143.592 52.4487 146.073 51.3206 148.33C51.0865 148.808 49.8902 151.236 47.0565 153.232C45.2653 154.494 41.9252 156.186 37.4117 155.945C32.8772 155.704 29.7568 153.651 28.1147 152.164C24.6518 149.027 24.1841 145.119 23.8888 142.655C23.8564 142.384 23.8263 142.131 23.7942 141.898C23.6949 141.174 23.5391 140.223 23.3284 139.045C22.9586 136.981 22.4765 134.544 21.9534 131.896L21.7245 130.74C21.1302 127.73 20.5019 124.511 20.0227 121.669C19.5875 119.085 19.1121 115.92 19.1121 113.408C19.1121 109.778 20.6839 105.561 24.7808 102.543C28.196 100.026 31.85 99.4981 33.6564 99.3536C33.9593 99.3289 34.2613 99.312 34.5618 99.3016C37.0873 99.2134 39.4819 99.5847 41.2205 99.9374C41.6902 100.033 42.112 100.126 42.4756 100.21C45.4283 100.884 48.9944 101.971 52.5562 103.11V98.3344C51.9494 98.1527 51.3622 97.948 50.7951 97.7229C45.0284 95.4363 41.2788 91.0564 38.9635 87.3697C38.1532 86.0801 37.5187 84.8753 37.0348 83.8743C36.8413 83.4749 36.6535 83.0698 36.47 82.6596C33.7935 76.6629 32.182 69.5661 31.1357 63.1345C28.8577 49.1323 28.6675 34.3065 28.6675 30.0456C28.6675 28.6353 28.916 27.2773 29.3751 26.0063C26.8572 26.3815 24.2993 26.7801 21.6959 27.2011L23.4598 46.0087C23.6834 48.3901 21.7331 50.4847 19.1039 50.6868L9.58271 51.4194C6.95353 51.6219 4.64106 49.8554 4.4177 47.474L2.74445 29.6341C1.4245 29.0706 0.405415 27.9684 0.0950543 26.5732C-0.292276 24.8318 0.533028 23.1241 2.04422 22.1682L0.473975 5.42679C0.250617 3.04533 2.20093 0.950755 4.83011 0.748442L14.3513 0.0157868ZM54.9484 22.8714C56.4557 24.927 57.3339 27.3933 57.3339 30.0456C57.3339 33.9638 57.5298 47.2663 59.4958 59.3488C60.4857 65.4338 61.7862 70.2806 63.2277 73.3212H109.7L109.749 73.2238L109.803 73.1182C111.271 70.1625 112.527 65.3018 113.374 59.0749C114.817 48.4698 114.693 37.2082 114.633 31.9835L114.633 31.9601C114.624 31.1998 114.616 30.5416 114.616 30.0456C114.616 27.4115 115.483 24.9608 116.971 22.9138C95.4678 20.9201 76.1338 20.9167 54.9484 22.8714ZM109.889 98.3427V94.8724C109.889 92.6511 111.746 90.7902 114.186 90.5669C120.695 89.9706 124.801 85.1107 127.23 80.2223C129.891 74.8661 131.424 67.939 132.341 61.1919C133.963 49.2712 133.807 36.6257 133.743 31.6568L133.743 31.6325C133.734 30.9821 133.727 30.4308 133.727 30.0456C133.727 27.6555 131.588 25.7181 128.95 25.7181C126.311 25.7181 124.172 27.6555 124.172 30.0456C124.172 30.4914 124.179 31.1037 124.188 31.8939L124.189 31.9424C124.248 37.1632 124.383 48.9207 122.858 60.1334C121.976 66.6178 120.582 72.5132 118.516 76.6703C117.534 78.6471 116.574 79.9631 115.591 80.8005C114.705 81.5556 113.534 81.9763 112.317 81.9763H60.3816C58.8675 81.9763 57.4433 81.3263 56.5422 80.2241C55.9474 79.4966 55.2752 78.4489 54.5384 76.9265C52.5542 72.8248 51.0841 67.0138 50.0421 60.6107C47.9724 47.8881 47.7784 34.0772 47.7784 30.0456C47.7784 27.6555 45.6394 25.7181 43.0007 25.7181C40.362 25.7181 38.223 27.6555 38.223 30.0456C38.223 33.4847 38.3548 43.9245 39.641 55.0113C39.9052 57.2893 40.2186 59.595 40.5889 61.8726C41.6687 68.5089 43.285 75.2301 45.7866 80.4006C47.9657 84.9047 51.721 89.9541 57.8566 90.5656C60.2784 90.8071 62.1116 92.6606 62.1116 94.8672V98.3431C63.2745 98.6607 64.748 99.0303 66.4904 99.4016C71.292 100.425 78.0845 101.45 85.9998 101.45C93.915 101.45 100.708 100.425 105.51 99.4016C107.252 99.0303 108.726 98.6603 109.889 98.3427ZM62.1116 107.333C62.7948 107.495 63.5258 107.661 64.3017 107.826C69.6523 108.967 77.193 110.105 85.9998 110.105C94.8065 110.105 102.347 108.967 107.698 107.826C108.474 107.661 109.206 107.495 109.889 107.333V109.252C109.889 110.658 110.644 111.977 111.914 112.788C113.183 113.599 114.808 113.8 116.272 113.327L118.9 112.475C123.784 110.889 128.414 109.39 131.862 108.602C133.611 108.202 135.678 107.829 137.502 107.975C138.425 108.049 139.887 108.296 141.19 109.257C142.708 110.375 143.333 111.946 143.333 113.408C143.333 116.601 142.063 125.35 140.89 132.349C140.29 135.936 139.681 139.26 139.215 141.44C138.809 143.334 138.536 144.374 138.001 145.187L137.977 145.225C137.895 145.349 137.376 146.147 136.325 146.72C135.668 147.078 134.612 147.452 133.299 147.315C131.972 147.177 131.014 146.582 130.436 146.054C129.849 145.517 129.414 144.831 129.2 144.109L129.197 144.097C128.624 142.183 128.396 139.972 128.269 137.414C128.235 136.733 128.208 136.006 128.18 135.253C128.11 133.371 128.035 131.33 127.829 129.469C127.64 127.758 127.451 126.101 127.281 124.636C127.128 123.315 126.314 122.131 125.072 121.425C123.83 120.717 122.299 120.566 120.919 121.014C115.59 122.743 109.521 124.691 103.567 126.206C97.6163 127.721 91.4402 128.896 86.0002 128.896C80.5603 128.896 74.3841 127.721 68.4335 126.206C62.8402 124.782 57.1456 122.977 52.0583 121.331L51.1185 121.026C49.7139 120.571 48.1549 120.736 46.9036 121.472C46.2553 121.854 45.7283 122.367 45.3556 122.96C45.0093 123.511 44.7962 124.131 44.7431 124.781C44.5697 126.903 44.3753 129.247 44.1813 131.534C43.8822 135.051 43.5817 138.458 43.3543 140.722L43.3347 140.917C43.133 142.931 43.0327 143.929 42.6137 144.764L42.5831 144.826C42.5545 144.885 42.1431 145.729 41.1899 146.4C40.5751 146.833 39.4618 147.385 37.9726 147.305C36.4767 147.226 35.4352 146.554 34.8714 146.044C33.8666 145.134 33.7491 144.275 33.311 141.082L33.2766 140.83C33.1562 139.954 32.9799 138.885 32.7606 137.659C32.3769 135.517 31.882 133.015 31.3646 130.398L31.1309 129.216C30.5347 126.196 29.9269 123.081 29.4687 120.362C29.0259 117.737 28.6675 115.178 28.6675 113.408C28.6675 111.946 29.2929 110.375 30.8108 109.257C31.7267 108.582 32.7219 108.259 33.5523 108.101C33.903 108.034 34.2245 107.997 34.4987 107.975C36.3224 107.829 38.3897 108.202 40.1384 108.602C40.9921 108.797 41.919 109.036 42.9037 109.309C45.6796 110.078 48.9194 111.118 52.3072 112.218L55.7286 113.327C57.192 113.8 58.8174 113.599 60.0868 112.788C61.3563 111.977 62.1116 110.658 62.1116 109.252V107.333Z" fill="#BCFF36"/>
</svg>
