<svg width="80" height="80" viewBox="0 0 80 80" fill="none" xmlns="http://www.w3.org/2000/svg">
<g clip-path="url(#clip0_8_33)">
<path d="M62.0773 25.5651C61.5444 25.0482 60.7968 24.8133 60.0652 24.9334C59.3322 25.0531 58.6993 25.5124 58.3593 26.1715C57.1899 28.439 55.7046 30.5228 53.9571 32.3649C54.1313 31.0342 54.219 29.6956 54.219 28.3534C54.219 25.778 53.8732 23.1277 53.1908 20.4753C50.9474 11.7631 45.0646 4.39526 37.0513 0.261177C36.3537 -0.0986279 35.5224 -0.0859949 34.836 0.294864C34.1496 0.67588 33.7001 1.37443 33.6385 2.1558C33.0138 10.0731 28.9282 17.276 22.423 21.9224C22.3369 21.9843 22.2515 22.047 22.166 22.1094C21.989 22.2387 21.8221 22.361 21.6662 22.4636C21.6418 22.4798 21.6176 22.4964 21.5938 22.5134C17.5026 25.4372 14.1268 29.3347 11.831 33.7857C9.49818 38.3131 8.31537 43.1715 8.31537 48.2254C8.31537 50.8001 8.66115 53.4503 9.34318 56.1032C12.9424 70.0863 25.5493 79.8523 40.0008 79.8523C57.4713 79.8523 71.6844 65.6645 71.6844 48.2254C71.6844 39.6257 68.2726 31.578 62.0773 25.5651Z" fill="#BCFF36"/>
<ellipse cx="37.6471" cy="46.9721" rx="9.41176" ry="9.39442" fill="#1B1B1B"/>
</g>
<defs>
<clipPath id="clip0_8_33">
<rect width="80" height="79.8525" fill="white"/>
</clipPath>
</defs>
</svg>
